<mxfile host="app.diagrams.net" modified="2023-06-05T05:35:38.006Z" agent="Mozilla/5.0 (Windows NT 10.0; Win64; x64) AppleWebKit/537.36 (KHTML, like Gecko) Chrome/113.0.0.0 Safari/537.36" etag="Lai9aLC_Z_f-U5U7a6AK" version="21.3.6" type="github">
  <diagram name="第 1 页" id="-Iq0EgqPXR5Xz6Nc5Kyj">
    <mxGraphModel dx="1434" dy="764" grid="1" gridSize="10" guides="1" tooltips="1" connect="1" arrows="1" fold="1" page="1" pageScale="1" pageWidth="827" pageHeight="1169" math="0" shadow="0">
      <root>
        <mxCell id="0" />
        <mxCell id="1" parent="0" />
        <mxCell id="-23ye9yzSMKUk6y9TaAN-9" value="" style="edgeStyle=orthogonalEdgeStyle;rounded=0;orthogonalLoop=1;jettySize=auto;html=1;fontStyle=3;fontFamily=Comic Sans MS;" edge="1" parent="1" source="-23ye9yzSMKUk6y9TaAN-2" target="-23ye9yzSMKUk6y9TaAN-3">
          <mxGeometry relative="1" as="geometry" />
        </mxCell>
        <mxCell id="-23ye9yzSMKUk6y9TaAN-2" value="SpringBoot自动装配" style="ellipse;whiteSpace=wrap;html=1;fillColor=#d5e8d4;strokeColor=#82b366;fillStyle=solid;sketch=1;curveFitting=1;jiggle=2;shadow=1;fontStyle=3;fontFamily=Comic Sans MS;" vertex="1" parent="1">
          <mxGeometry x="40" y="80" width="120" height="60" as="geometry" />
        </mxCell>
        <mxCell id="-23ye9yzSMKUk6y9TaAN-10" value="" style="edgeStyle=orthogonalEdgeStyle;rounded=0;orthogonalLoop=1;jettySize=auto;html=1;fontStyle=3;fontFamily=Comic Sans MS;" edge="1" parent="1" source="-23ye9yzSMKUk6y9TaAN-3" target="-23ye9yzSMKUk6y9TaAN-4">
          <mxGeometry relative="1" as="geometry" />
        </mxCell>
        <mxCell id="-23ye9yzSMKUk6y9TaAN-3" value="初始化 EurekaServer 相关配置" style="rounded=1;whiteSpace=wrap;html=1;fillColor=#dae8fc;strokeColor=#6c8ebf;fillStyle=solid;sketch=1;curveFitting=1;jiggle=2;shadow=1;fontStyle=3;fontFamily=Comic Sans MS;" vertex="1" parent="1">
          <mxGeometry x="240" y="80" width="190" height="60" as="geometry" />
        </mxCell>
        <mxCell id="-23ye9yzSMKUk6y9TaAN-11" value="" style="edgeStyle=orthogonalEdgeStyle;rounded=0;orthogonalLoop=1;jettySize=auto;html=1;fontStyle=3;fontFamily=Comic Sans MS;" edge="1" parent="1" source="-23ye9yzSMKUk6y9TaAN-4" target="-23ye9yzSMKUk6y9TaAN-5">
          <mxGeometry relative="1" as="geometry" />
        </mxCell>
        <mxCell id="-23ye9yzSMKUk6y9TaAN-4" value="初始化注册表、集群节点、&lt;div class=&quot;lake-content&quot;&gt; &lt;span style=&quot;color: rgb(18, 18, 18)&quot; class=&quot;ne-text&quot;&gt;Eureka Server &lt;/span&gt;&lt;span style=&quot;color: rgb(64, 64, 64)&quot; class=&quot;ne-text&quot;&gt;上下文&lt;/span&gt;&lt;/div&gt;" style="rounded=1;whiteSpace=wrap;html=1;fillColor=#dae8fc;strokeColor=#6c8ebf;fillStyle=solid;sketch=1;curveFitting=1;jiggle=2;shadow=1;fontStyle=3;fontFamily=Comic Sans MS;" vertex="1" parent="1">
          <mxGeometry x="240" y="200" width="190" height="60" as="geometry" />
        </mxCell>
        <mxCell id="-23ye9yzSMKUk6y9TaAN-12" value="" style="edgeStyle=orthogonalEdgeStyle;rounded=0;orthogonalLoop=1;jettySize=auto;html=1;fontStyle=3;fontFamily=Comic Sans MS;" edge="1" parent="1" source="-23ye9yzSMKUk6y9TaAN-5" target="-23ye9yzSMKUk6y9TaAN-6">
          <mxGeometry relative="1" as="geometry" />
        </mxCell>
        <mxCell id="-23ye9yzSMKUk6y9TaAN-5" value="初始化&amp;nbsp;&lt;span style=&quot;background-color: initial; color: rgb(18, 18, 18);&quot; class=&quot;ne-text&quot;&gt;Eureka Server &lt;/span&gt;&lt;span style=&quot;background-color: initial;&quot; class=&quot;ne-text&quot;&gt;&lt;font color=&quot;#404040&quot;&gt;启动器，&lt;br&gt;加载配置环境并拉取集群节点注册表&lt;br&gt;&lt;/font&gt;&lt;/span&gt;" style="rounded=1;whiteSpace=wrap;html=1;fillColor=#dae8fc;strokeColor=#6c8ebf;fillStyle=solid;sketch=1;curveFitting=1;jiggle=2;shadow=1;fontStyle=3;fontFamily=Comic Sans MS;" vertex="1" parent="1">
          <mxGeometry x="240" y="320" width="190" height="60" as="geometry" />
        </mxCell>
        <mxCell id="-23ye9yzSMKUk6y9TaAN-13" value="" style="edgeStyle=orthogonalEdgeStyle;rounded=0;orthogonalLoop=1;jettySize=auto;html=1;fontStyle=3;fontFamily=Comic Sans MS;" edge="1" parent="1" source="-23ye9yzSMKUk6y9TaAN-6" target="-23ye9yzSMKUk6y9TaAN-8">
          <mxGeometry relative="1" as="geometry" />
        </mxCell>
        <mxCell id="-23ye9yzSMKUk6y9TaAN-6" value="初始化 Jersey&lt;span style=&quot;white-space: pre;&quot;&gt;&#x9;&lt;/span&gt;服务过滤器与资源，提供服务接口" style="rounded=1;whiteSpace=wrap;html=1;fillColor=#dae8fc;strokeColor=#6c8ebf;fillStyle=solid;sketch=1;curveFitting=1;jiggle=2;shadow=1;fontStyle=3;fontFamily=Comic Sans MS;" vertex="1" parent="1">
          <mxGeometry x="240" y="440" width="190" height="60" as="geometry" />
        </mxCell>
        <mxCell id="-23ye9yzSMKUk6y9TaAN-8" value="监控与等待注册" style="rounded=1;whiteSpace=wrap;html=1;fillColor=#dae8fc;strokeColor=#6c8ebf;fillStyle=solid;sketch=1;curveFitting=1;jiggle=2;shadow=1;fontStyle=3;fontFamily=Comic Sans MS;" vertex="1" parent="1">
          <mxGeometry x="240" y="560" width="190" height="60" as="geometry" />
        </mxCell>
      </root>
    </mxGraphModel>
  </diagram>
</mxfile>
